<svg width="65" height="60" viewBox="0 0 65 60" fill="none" xmlns="http://www.w3.org/2000/svg">
<path fill-rule="evenodd" clip-rule="evenodd" d="M59.2421 1.16057C56.767 1.84653 54.2765 2.56129 53.7074 2.74913C53.1383 2.93669 51.7202 3.3425 50.556 3.65062C49.3917 3.95874 47.2564 4.56096 45.8107 4.989C44.365 5.41704 42.946 5.77535 42.6572 5.78535C42.2245 5.80043 42.1205 5.90531 42.0665 6.38234C41.9659 7.2703 42.3518 7.73812 44.5626 9.40756C47.1096 11.3311 47.8672 12.0317 47.7506 12.3561C47.6601 12.6076 45.8156 14.6005 43.6375 16.7999C43.0184 17.4252 42.0518 18.4405 41.4897 19.0559C40.9277 19.6713 40.4041 20.1522 40.3263 20.1242C40.2485 20.0962 40.0448 20.3055 39.8739 20.5892C39.5808 21.0751 39.1392 21.5566 36.6891 24.0624C36.1352 24.6288 35.6694 25.1273 35.654 25.1702C35.6085 25.2965 31.802 29.1923 30.1663 30.7863C29.6671 31.273 28.8827 32.1307 28.4231 32.6922C27.9636 33.2538 27.3009 33.9422 26.9503 34.2221C26.4069 34.6559 26.3157 34.6718 26.3312 34.3298C26.3412 34.1092 26.8303 32.6149 27.4179 31.0092C28.0057 29.4036 28.4884 27.9419 28.4907 27.761C28.4929 27.5801 28.5915 26.8227 28.7097 26.0778C28.828 25.333 28.8792 24.6131 28.8238 24.478C28.7684 24.3431 28.7758 24.0859 28.8404 23.9065C28.9049 23.7271 28.8454 22.6597 28.7082 21.5345C28.3092 18.2598 26.727 15.1736 23.9156 12.1848C22.3532 10.5239 21.3649 9.60178 20.583 9.07523C20.2133 8.82622 19.596 8.39564 19.2112 8.11828C18.3783 7.5179 17.0643 6.77865 14.9065 5.69607C12.8972 4.68804 12.7 4.76378 12.2404 6.72014C12.07 7.44624 11.8007 8.43959 11.6421 8.92767C11.4836 9.41575 11.3587 9.96552 11.3647 10.1494C11.3708 10.3333 11.2903 11.0476 11.1862 11.737C10.8522 13.9444 10.8337 16.2473 11.1341 18.2155C11.9635 23.6468 14.1203 27.2816 18.5489 30.7113C19.3179 31.307 20.3709 32.124 20.8891 32.5271C21.4073 32.9301 21.9248 33.2402 22.039 33.2159C22.3792 33.144 22.6325 31.3722 22.5116 29.9089C22.3975 28.5263 21.3701 23.3848 21.0646 22.6677C20.7345 21.8927 20.1985 19.7651 20.2777 19.5447C20.4048 19.1913 21.1571 20.1047 21.9425 21.5659C23.1893 23.8851 24.303 29.1742 23.8247 30.5044C23.7453 30.725 23.7107 31.1116 23.7478 31.3635C23.8691 32.1863 23.1664 35.3754 22.3793 37.5751C21.7447 39.3483 21.491 39.8394 20.9433 40.3538C20.5774 40.6975 20.2464 41.0669 20.2076 41.1748C20.0448 41.6274 15.6099 46.2446 15.4045 46.1753C15.1217 46.0802 15.1065 45.5604 15.3653 44.8406C15.4755 44.5342 15.6419 43.636 15.7353 42.8443C16.3313 37.7885 14.5137 33.3091 10.6349 30.2752C8.44897 28.5654 3.99095 26.4263 1.66993 25.9739C0.456657 25.7374 0.0998134 25.9617 0.176476 26.9127C0.240756 27.7126 0.1661 28.924 0.0289861 29.3053C-0.111845 29.6969 0.285729 33.127 0.672543 34.8569C1.49072 38.5163 3.642 41.6864 6.55249 43.5214C9.61396 45.4516 11.4748 46.293 11.8137 45.9002C12.2576 45.3854 11.649 43.3689 10.0414 40.0274C9.12871 38.1301 8.44062 36.5502 8.51221 36.5165C8.96404 36.3037 10.9154 38.8202 11.8066 40.7655C12.8603 43.0652 13.2619 46.9218 12.5634 48.0326C12.3811 48.3221 12.3226 48.6182 12.4226 48.7438C12.5995 48.9665 11.9485 50.3432 11.5331 50.6248C11.4164 50.704 11.0449 51.0864 10.7073 51.4747C10.0459 52.236 9.21576 53.1143 7.94388 54.3997C7.35196 54.9977 7.00817 55.571 6.64045 56.5739L6.14093 57.9359L9.04985 59.0336C11.8622 60.0948 11.9814 60.1222 12.6425 59.858C13.0185 59.7078 13.8406 59.0386 14.4691 58.3711C15.6832 57.0816 17.0643 55.693 17.5144 55.3086C17.8498 55.0225 18.6169 54.2161 19.7003 53.0113C21.0039 51.5618 22.5198 50.0027 27.7683 44.7136C28.5079 43.9682 29.1249 43.3256 29.1392 43.2856C29.1629 43.2197 30.2097 42.1647 33.2349 39.1579C33.8166 38.5797 34.422 38.0046 34.5801 37.8797C34.7384 37.755 35.3117 37.1682 35.8542 36.576C37.1364 35.1762 37.1832 35.1281 43.5845 28.619C44.0465 28.1493 44.4993 27.7917 44.5908 27.8246C44.6821 27.8575 45.0042 27.5165 45.3064 27.0669C45.6086 26.6172 46.4849 25.6193 47.2535 24.8489C50.0234 22.0731 50.932 21.1475 52.5776 19.4248C53.4977 18.4617 54.3829 17.6711 54.5449 17.6677C54.7069 17.6643 55.9465 18.8067 57.2997 20.2063C60.6434 23.6654 61.0202 23.652 61.8505 20.0461C62.0822 19.0392 62.2389 18.0732 62.1985 17.8994C62.1581 17.7257 62.2863 17.3088 62.4835 16.9729C62.6829 16.6328 62.7748 16.2785 62.691 16.173C62.5087 15.9438 62.5662 14.7831 62.8365 13.2427C63.0546 11.9999 63.1588 11.3315 63.6498 8.02914C64.2457 4.02242 64.3112 3.53655 64.3407 2.90384C64.3568 2.55834 64.4401 2.08128 64.5255 1.84374C64.7064 1.34077 64.3568 0.134332 63.9923 0.00325004C63.8548 -0.046195 61.7173 0.474614 59.2421 1.16057Z" fill="#A100FF"/>
</svg>
