<svg width="177" height="177" viewBox="0 0 177 177" fill="none" xmlns="http://www.w3.org/2000/svg">
<g clip-path="url(#clip0_103_1048)">
<path d="M44.25 44.25C31.7125 44.25 22.125 34.6625 22.125 22.125C22.125 9.5875 31.7125 0 44.25 0C56.7875 0 66.375 9.5875 66.375 22.125C66.375 34.6625 56.7875 44.25 44.25 44.25ZM44.25 7.375C36.1375 7.375 29.5 14.0125 29.5 22.125C29.5 30.2375 36.1375 36.875 44.25 36.875C52.3625 36.875 59 30.2375 59 22.125C59 14.0125 52.3625 7.375 44.25 7.375ZM84.8125 103.25H3.6875C1.475 103.25 0 101.775 0 99.5625V84.8125C0 66.375 14.75 51.625 33.1875 51.625H55.3125C73.75 51.625 88.5 66.375 88.5 84.8125V99.5625C88.5 101.775 87.025 103.25 84.8125 103.25ZM7.375 95.875H81.125V84.8125C81.125 70.8 69.325 59 55.3125 59H33.1875C19.175 59 7.375 70.8 7.375 84.8125V95.875ZM132.75 118C120.213 118 110.625 108.412 110.625 95.875C110.625 83.3375 120.213 73.75 132.75 73.75C145.288 73.75 154.875 83.3375 154.875 95.875C154.875 108.412 145.288 118 132.75 118ZM132.75 81.125C124.637 81.125 118 87.7625 118 95.875C118 103.988 124.637 110.625 132.75 110.625C140.863 110.625 147.5 103.988 147.5 95.875C147.5 87.7625 140.863 81.125 132.75 81.125ZM173.312 177H92.1875C89.975 177 88.5 175.525 88.5 173.312V158.562C88.5 140.125 103.25 125.375 121.688 125.375H143.812C162.25 125.375 177 140.125 177 158.562V173.312C177 175.525 175.525 177 173.312 177ZM95.875 169.625H169.625V158.562C169.625 144.55 157.825 132.75 143.812 132.75H121.688C107.675 132.75 95.875 144.55 95.875 158.562V169.625ZM129.062 59C128.325 59 126.85 59 126.113 58.2625L115.05 47.2C113.575 45.725 113.575 43.5125 115.05 42.0375C116.525 40.5625 118.737 40.5625 120.212 42.0375L128.325 50.15L136.438 42.0375C137.913 40.5625 140.125 40.5625 141.6 42.0375C143.075 43.5125 143.075 45.725 141.6 47.2L130.538 58.2625C131.275 59 129.8 59 129.062 59Z" fill="#7500C0"/>
<path d="M129.062 57.525C126.85 57.525 125.375 56.05 125.375 53.8375V40.5625C125.375 34.6625 120.212 29.5 114.312 29.5H106.937C104.725 29.5 103.25 28.025 103.25 25.8125C103.25 23.6 104.725 22.125 106.937 22.125H114.312C124.637 22.125 132.75 30.2375 132.75 40.5625V53.8375C132.75 55.3125 131.275 57.525 129.062 57.525ZM51.6249 136.438C50.8874 136.438 49.4124 136.438 48.6749 135.7L40.5624 127.587L32.4499 135.7C30.9749 137.175 28.7624 137.175 27.2874 135.7C25.8124 134.225 25.8124 132.013 27.2874 130.538L38.3499 119.475C39.8249 118 42.0374 118 43.5124 119.475L54.5749 130.538C56.0499 132.013 56.0499 134.225 54.5749 135.7C53.8374 136.438 52.3624 136.438 51.6249 136.438Z" fill="#7500C0"/>
<path d="M62.6875 154.875H55.3125C44.9875 154.875 36.875 146.762 36.875 136.437V123.162C36.875 120.95 38.35 119.475 40.5625 119.475C42.775 119.475 44.25 121.687 44.25 123.9V137.175C44.25 142.337 49.4125 147.5 55.3125 147.5H62.6875C64.9 147.5 66.375 148.975 66.375 151.187C66.375 153.4 64.9 154.875 62.6875 154.875Z" fill="#7500C0"/>
</g>
<defs>
<clipPath id="clip0_103_1048">
<rect width="177" height="177" fill="white"/>
</clipPath>
</defs>
</svg>
